<svg xmlns="http://www.w3.org/2000/svg" xmlns:xlink="http://www.w3.org/1999/xlink" viewBox="0 0 20 20"><defs><style>.cls-1,.cls-4{fill:#fff;}.cls-1{filter:url(#luminosity-invert-noclip);}.cls-2{fill:url(#linear-gradient);filter:url(#luminosity-noclip);}.cls-3{mask:url(#mask);}.cls-5{mask:url(#mask-2);}</style><linearGradient id="linear-gradient" x1="10.08" y1="13.94" x2="-1.85" y2="1.72" gradientTransform="matrix(1.06, -0.01, -0.01, 1.06, 3.23, -0.7)" gradientUnits="userSpaceOnUse"><stop offset="0" stop-color="#fff"/><stop offset="0.09" stop-color="#f9f9f9" stop-opacity="0.97"/><stop offset="0.22" stop-color="#e7e7e7" stop-opacity="0.9"/><stop offset="0.36" stop-color="#c9c9c9" stop-opacity="0.79"/><stop offset="0.53" stop-color="#a0a0a0" stop-opacity="0.63"/><stop offset="0.7" stop-color="#6b6b6b" stop-opacity="0.42"/><stop offset="0.89" stop-color="#2c2c2c" stop-opacity="0.17"/><stop offset="1" stop-opacity="0"/></linearGradient><filter id="luminosity-invert-noclip" x="9.61" y="9.6" width="10" height="10" filterUnits="userSpaceOnUse" color-interpolation-filters="sRGB"><feColorMatrix values="-1 0 0 0 1 0 -1 0 0 1 0 0 -1 0 1 0 0 0 1 0" result="invert"/><feFlood flood-color="#fff" result="bg"/><feBlend in="invert" in2="bg"/></filter><mask id="mask" x="9.61" y="9.6" width="10" height="10" maskUnits="userSpaceOnUse"><path class="cls-1" d="M15.11,11.1c.56.36.18,2.53-.15,3.26-.52,1.15-3.42,1.34-3.85.74C10.49,14.23,14.11,10.46,15.11,11.1Z"/></mask><filter id="luminosity-noclip" x="0.36" y="0.37" width="14.55" height="14.55" filterUnits="userSpaceOnUse" color-interpolation-filters="sRGB"><feFlood flood-color="#fff" result="bg"/><feBlend in="SourceGraphic" in2="bg"/></filter><mask id="mask-2" x="0.36" y="0.37" width="14.55" height="14.55" maskUnits="userSpaceOnUse"><polygon class="cls-2" points="0.45 0.46 14.91 0.37 14.82 14.83 0.36 14.92 0.45 0.46"/></mask></defs><title>Damage_Kinetic</title><g id="Kinetic_3"><g class="cls-3"><rect class="cls-4" x="9.02" y="13.12" width="11.18" height="2.96" transform="translate(-6.05 14.61) rotate(-45)"/></g><g class="cls-5"><path class="cls-4" d="M.39,10.1l10.83,2.34L1.39,1.6l.36-.36,10.68,10L10.09.4s4.74,12,3.55,13.2S.39,10.1.39,10.1Z"/></g></g></svg>