<svg xmlns="http://www.w3.org/2000/svg" xmlns:xlink="http://www.w3.org/1999/xlink" viewBox="0 0 20 20"><defs><style>.cls-1,.cls-2{fill:none;stroke:#fff;stroke-miterlimit:10;}.cls-1{filter:url(#luminosity-invert-noclip);}.cls-2{filter:url(#luminosity-invert-noclip-2);}.cls-3{mask:url(#mask);}.cls-4{fill:#80ffff;}.cls-5{mask:url(#mask-2);}.cls-6{fill:#cc7529;}</style><filter id="luminosity-invert-noclip" x="0" y="0" width="15.82" height="20" filterUnits="userSpaceOnUse" color-interpolation-filters="sRGB"><feColorMatrix values="-1 0 0 0 1 0 -1 0 0 1 0 0 -1 0 1 0 0 0 1 0" result="invert"/><feFlood flood-color="#fff" result="bg"/><feBlend in="invert" in2="bg"/></filter><mask id="mask" x="0" y="0" width="15.82" height="20" maskUnits="userSpaceOnUse"><polyline class="cls-1" points="15.5 19.5 11.54 16.23 10.04 7.73 4.04 0.73"/></mask><filter id="luminosity-invert-noclip-2" x="3.66" y="0" width="16.34" height="19.89" filterUnits="userSpaceOnUse" color-interpolation-filters="sRGB"><feColorMatrix values="-1 0 0 0 1 0 -1 0 0 1 0 0 -1 0 1 0 0 0 1 0" result="invert"/><feFlood flood-color="#fff" result="bg"/><feBlend in="invert" in2="bg"/></filter><mask id="mask-2" x="3.66" y="0" width="16.34" height="19.89" maskUnits="userSpaceOnUse"><polyline class="cls-2" points="15.5 19.5 11.54 16.23 10.04 7.73 4.04 0.73"/></mask></defs><title>Stat_ArmourPiercing</title><g id="ArmourPiercing_1"><g class="cls-3"><path class="cls-4" d="M12,17c-1-3-1-6-2-9,0-2-4-3-4-5V2.77a13.69,13.69,0,0,1-1.38-.44A14.82,14.82,0,0,1,.19,0C0,1.49-1.17,11,5.25,17c.27.25.53.47.8.69l.08,0-.08,0A15.16,15.16,0,0,0,10,20a15.53,15.53,0,0,0,3.52-2A1.46,1.46,0,0,0,12,17Z"/></g><g class="cls-5"><path class="cls-6" d="M19.81,0a12.84,12.84,0,0,1-2.48,1.53c-.56.26-1.2.53-1.95.8a16.5,16.5,0,0,1-5.38,1,16.47,16.47,0,0,1-4-.56V3c0,2,4,3,4,5,1,3,1,6,2,9a1.46,1.46,0,0,1,1.52,1,16,16,0,0,0,1.23-1C21.17,11,20,1.49,19.81,0Z"/></g></g></svg>