<svg xmlns="http://www.w3.org/2000/svg" viewBox="0 0 20 20"><defs><style>.cls-1{fill:#ff1d25;}.cls-2{fill:none;stroke:#fff;stroke-miterlimit:10;}</style></defs><title>Stat_Range</title><g id="Range_6"><path class="cls-1" d="M17.17,11.57c-.11,0-1.29,0-2.27-2-.35-.71-1-2-1-2-.72-1.77-3.06-2.9-5-3-3-.09-5.17,2.36-6,4-.73,1.44-.84,3-1,3a4.55,4.55,0,0,1,0-2,8.83,8.83,0,0,1,7-7c4.83-.76,8.36,3.28,8.93,5C18.84,10.54,17.5,11.66,17.17,11.57Z"/><line class="cls-2" x1="3.04" y1="15.98" x2="16.96" y2="16.07"/><line class="cls-2" x1="1" y1="12.53" x2="1" y2="19.53"/><line class="cls-2" x1="19" y1="12.53" x2="19" y2="19.53"/></g></svg>